<svg width="244" height="46" viewBox="0 0 244 46" fill="none" xmlns="http://www.w3.org/2000/svg">
<path d="M0.792614 45V1.36364H18.2642C21.4744 1.36364 24.152 1.83949 26.2969 2.79119C28.4418 3.7429 30.054 5.06392 31.1335 6.75426C32.2131 8.4304 32.7528 10.3622 32.7528 12.5497C32.7528 14.2543 32.4119 15.7528 31.7301 17.0455C31.0483 18.3239 30.1108 19.375 28.9176 20.1989C27.7386 21.0085 26.3892 21.5838 24.8693 21.9247V22.3509C26.5313 22.4219 28.0866 22.8906 29.5355 23.7571C30.9986 24.6236 32.1847 25.8381 33.0938 27.4006C34.0028 28.9489 34.4574 30.7955 34.4574 32.9403C34.4574 35.2557 33.8821 37.3224 32.7315 39.1406C31.5952 40.9446 29.9119 42.3722 27.6818 43.4233C25.4517 44.4744 22.7031 45 19.4361 45H0.792614ZM10.0185 37.4574H17.5398C20.1108 37.4574 21.9858 36.9673 23.1648 35.9872C24.3438 34.9929 24.9332 33.6719 24.9332 32.0241C24.9332 30.8168 24.642 29.7514 24.0597 28.8281C23.4773 27.9048 22.6463 27.1804 21.5668 26.6548C20.5014 26.1293 19.2301 25.8665 17.7528 25.8665H10.0185V37.4574ZM10.0185 19.6236H16.858C18.1222 19.6236 19.2443 19.4034 20.2244 18.9631C21.2188 18.5085 22 17.8693 22.5682 17.0455C23.1506 16.2216 23.4418 15.2344 23.4418 14.0838C23.4418 12.5071 22.8807 11.2358 21.7585 10.2699C20.6506 9.30398 19.0739 8.82102 17.0284 8.82102H10.0185V19.6236ZM40.4606 1.36364H51.8384L63.8555 30.6818H64.3668L76.3839 1.36364H87.7617V45H78.8129V16.598H78.4506L67.158 44.7869H61.0643L49.7717 16.4915H49.4094V45H40.4606V1.36364ZM119.035 13.9134C118.864 12.1946 118.133 10.8594 116.84 9.90767C115.548 8.95596 113.793 8.48011 111.577 8.48011C110.072 8.48011 108.8 8.69318 107.763 9.11932C106.727 9.53125 105.931 10.1065 105.377 10.8452C104.837 11.5838 104.567 12.4219 104.567 13.3594C104.539 14.1406 104.702 14.8224 105.058 15.4048C105.427 15.9872 105.931 16.4915 106.57 16.9176C107.21 17.3295 107.948 17.6918 108.786 18.0043C109.624 18.3026 110.519 18.5582 111.471 18.7713L115.391 19.7088C117.295 20.1349 119.042 20.7031 120.633 21.4134C122.224 22.1236 123.602 22.9972 124.766 24.0341C125.931 25.071 126.833 26.2926 127.472 27.6989C128.126 29.1051 128.46 30.7173 128.474 32.5355C128.46 35.206 127.778 37.5213 126.428 39.4815C125.093 41.4276 123.161 42.9403 120.633 44.0199C118.119 45.0852 115.086 45.6179 111.535 45.6179C108.012 45.6179 104.944 45.0781 102.33 43.9986C99.7308 42.919 97.6996 41.321 96.2365 39.2045C94.7876 37.0739 94.0277 34.4389 93.9567 31.2997H102.884C102.984 32.7628 103.403 33.9844 104.141 34.9645C104.894 35.9304 105.896 36.6619 107.146 37.1591C108.41 37.642 109.837 37.8835 111.428 37.8835C112.991 37.8835 114.347 37.6562 115.498 37.2017C116.663 36.7472 117.565 36.1151 118.204 35.3054C118.843 34.4957 119.163 33.5653 119.163 32.5142C119.163 31.5341 118.871 30.7102 118.289 30.0426C117.721 29.375 116.883 28.8068 115.775 28.3381C114.681 27.8693 113.339 27.4432 111.748 27.0597L106.996 25.8665C103.317 24.9716 100.413 23.5724 98.282 21.669C96.1513 19.7656 95.093 17.2017 95.1072 13.9773C95.093 11.3352 95.7962 9.02699 97.2166 7.05256C98.6513 5.07812 100.619 3.53693 103.119 2.42898C105.619 1.32102 108.46 0.767044 111.641 0.767044C114.88 0.767044 117.707 1.32102 120.121 2.42898C122.55 3.53693 124.44 5.07812 125.789 7.05256C127.138 9.02699 127.835 11.3139 127.877 13.9134H119.035ZM150.148 45H134.679V1.36364H150.276C154.665 1.36364 158.444 2.23722 161.611 3.98438C164.779 5.71733 167.215 8.21023 168.919 11.4631C170.638 14.7159 171.498 18.608 171.498 23.1392C171.498 27.6847 170.638 31.5909 168.919 34.858C167.215 38.125 164.765 40.6321 161.569 42.3793C158.387 44.1264 154.58 45 150.148 45ZM143.905 37.0952H149.765C152.492 37.0952 154.786 36.6122 156.647 35.6463C158.522 34.6662 159.928 33.1534 160.865 31.108C161.817 29.0483 162.293 26.392 162.293 23.1392C162.293 19.9148 161.817 17.2798 160.865 15.2344C159.928 13.1889 158.529 11.6832 156.668 10.7173C154.807 9.75142 152.513 9.26847 149.786 9.26847H143.905V37.0952ZM193.076 45.6392C189.71 45.6392 186.812 44.9574 184.383 43.5938C181.968 42.2159 180.107 40.2699 178.8 37.7557C177.494 35.2273 176.84 32.2372 176.84 28.7855C176.84 25.419 177.494 22.4645 178.8 19.9219C180.107 17.3793 181.947 15.3977 184.319 13.9773C186.705 12.5568 189.504 11.8466 192.714 11.8466C194.873 11.8466 196.883 12.1946 198.744 12.8906C200.619 13.5724 202.252 14.6023 203.644 15.9801C205.05 17.358 206.144 19.0909 206.925 21.179C207.707 23.2528 208.097 25.6818 208.097 28.4659V30.9588H180.462V25.3338H199.553C199.553 24.027 199.269 22.8693 198.701 21.8608C198.133 20.8523 197.344 20.0639 196.336 19.4957C195.342 18.9134 194.184 18.6222 192.863 18.6222C191.485 18.6222 190.263 18.9418 189.198 19.581C188.147 20.206 187.323 21.0511 186.727 22.1165C186.13 23.1676 185.825 24.3395 185.81 25.6321V30.9801C185.81 32.5994 186.109 33.9986 186.705 35.1776C187.316 36.3565 188.175 37.2656 189.283 37.9048C190.391 38.544 191.705 38.8636 193.225 38.8636C194.234 38.8636 195.157 38.7216 195.995 38.4375C196.833 38.1534 197.55 37.7273 198.147 37.1591C198.744 36.5909 199.198 35.8949 199.511 35.071L207.906 35.625C207.479 37.642 206.606 39.4034 205.285 40.9091C203.978 42.4006 202.288 43.5653 200.214 44.4034C198.154 45.2273 195.775 45.6392 193.076 45.6392ZM243.653 12.2727L232.211 45H221.984L210.542 12.2727H220.13L226.927 35.6889H227.268L234.044 12.2727H243.653Z" fill="#D1D5DB"/>
</svg>
